<?xml version="1.0" standalone="no"?>
<!DOCTYPE svg PUBLIC "-//W3C//DTD SVG 20010904//EN"
 "http://www.w3.org/TR/2001/REC-SVG-20010904/DTD/svg10.dtd">
<svg version="1.0" xmlns="http://www.w3.org/2000/svg"
 width="128.000000pt" height="128.000000pt" viewBox="0 0 128.000000 128.000000"
 preserveAspectRatio="xMidYMid meet">

<g transform="translate(0.000000,128.000000) scale(0.100000,-0.100000)"
fill="#000000" stroke="none">
<path d="M577 759 c7 -7 15 -10 18 -7 3 3 -2 9 -12 12 -14 6 -15 5 -6 -5z"/>
<path d="M769 585 l-15 -84 124 -178 c68 -98 129 -184 136 -191 9 -9 17 23 39
155 15 93 30 186 32 208 l5 40 -57 26 c-63 28 -104 45 -115 48 -4 1 -34 15
-67 31 -33 17 -62 30 -64 30 -2 0 -10 -38 -18 -85z"/>
</g>
</svg>
